<svg width="97" height="96" viewBox="0 0 97 96" fill="none" xmlns="http://www.w3.org/2000/svg">
<path d="M72.9688 23.5312V23.5856M5 26.25C5 20.4815 7.29151 14.9493 11.3704 10.8704C15.4493 6.79151 20.9815 4.5 26.75 4.5H70.25C76.0185 4.5 81.5507 6.79151 85.6296 10.8704C89.7085 14.9493 92 20.4815 92 26.25V69.75C92 75.5185 89.7085 81.0507 85.6296 85.1296C81.5507 89.2085 76.0185 91.5 70.25 91.5H26.75C20.9815 91.5 15.4493 89.2085 11.3704 85.1296C7.29151 81.0507 5 75.5185 5 69.75V26.25ZM32.1875 48C32.1875 52.3263 33.9061 56.4755 36.9653 59.5347C40.0245 62.5939 44.1737 64.3125 48.5 64.3125C52.8263 64.3125 56.9755 62.5939 60.0347 59.5347C63.0939 56.4755 64.8125 52.3263 64.8125 48C64.8125 43.6737 63.0939 39.5245 60.0347 36.4653C56.9755 33.4061 52.8263 31.6875 48.5 31.6875C44.1737 31.6875 40.0245 33.4061 36.9653 36.4653C33.9061 39.5245 32.1875 43.6737 32.1875 48Z" stroke="#99282E" stroke-width="9" stroke-linecap="round" stroke-linejoin="round"/>
</svg>
