<svg width="101" height="92" viewBox="0 0 101 92" fill="none" xmlns="http://www.w3.org/2000/svg">
<path d="M84.625 23.2501C80.8765 17.6399 75.7999 13.0429 69.8464 9.8677C63.893 6.69252 57.2472 5.03762 50.5 5.05012C43.7644 5.046 37.132 6.70507 31.1916 9.88004C25.2513 13.055 20.1868 17.6476 16.4478 23.2501M48.2251 5.05005C44.6789 10.7312 41.8861 16.8491 39.9168 23.25M52.775 5.05005C56.3243 10.7307 59.1202 16.8486 61.0924 23.25M84.625 68.7501C80.8765 74.3603 75.7999 78.9573 69.8464 82.1325C63.893 85.3077 57.2472 86.9626 50.5 86.9501C43.7644 86.9542 37.132 85.2951 31.1916 82.1201C25.2513 78.9452 20.1868 74.3526 16.4478 68.7501M48.2251 86.9501C44.6789 81.2689 41.8861 75.151 39.9168 68.7501M52.775 86.9501C56.3243 81.2694 59.1202 75.1515 61.0924 68.7501M5 36.9001L9.55 55.1001L16.375 36.9001L23.2 55.1001L27.75 36.9001M73.25 36.9001L77.8 55.1001L84.625 36.9001L91.45 55.1001L96 36.9001M39.125 36.9001L43.675 55.1001L50.5 36.9001L57.325 55.1001L61.875 36.9001" stroke="#99282E" stroke-width="9" stroke-linecap="round" stroke-linejoin="round"/>
</svg>
