<svg width="93" height="78" viewBox="0 0 93 78" fill="none" xmlns="http://www.w3.org/2000/svg">
<path d="M71.8636 0.95459C74.6393 0.95459 77.3878 1.5013 79.9522 2.5635C82.5166 3.6257 84.8466 5.18259 86.8093 7.14529C88.772 9.10798 90.3289 11.438 91.3911 14.0024C92.4533 16.5668 93 19.3153 93 22.091V55.9091C93 58.6848 92.4533 61.4333 91.3911 63.9977C90.3289 66.562 88.772 68.8921 86.8093 70.8548C84.8466 72.8175 82.5166 74.3744 79.9522 75.4366C77.3878 76.4988 74.6393 77.0455 71.8636 77.0455H21.1364C18.3607 77.0455 15.6122 76.4988 13.0478 75.4366C10.4834 74.3744 8.15339 72.8175 6.1907 70.8548C2.22686 66.891 0 61.5148 0 55.9091V22.091C0 16.4852 2.22686 11.1091 6.1907 7.14529C10.1545 3.18145 15.5307 0.95459 21.1364 0.95459H71.8636ZM33.8182 26.3182V51.6819C33.8188 52.4294 34.0176 53.1635 34.3944 53.8092C34.7712 54.4548 35.3125 54.9891 35.9631 55.3573C36.6137 55.7256 37.3503 55.9147 38.0978 55.9055C38.8453 55.8962 39.577 55.6889 40.2183 55.3046L61.3546 42.6228C61.9796 42.247 62.4968 41.7159 62.8558 41.0811C63.2148 40.4462 63.4035 39.7293 63.4035 39C63.4035 38.2707 63.2148 37.5538 62.8558 36.919C62.4968 36.2842 61.9796 35.7531 61.3546 35.3773L40.2183 22.6955C39.577 22.3112 38.8453 22.1039 38.0978 22.0946C37.3503 22.0854 36.6137 22.2745 35.9631 22.6428C35.3125 23.011 34.7712 23.5452 34.3944 24.1909C34.0176 24.8366 33.8188 25.5706 33.8182 26.3182Z" fill="#99282E"/>
</svg>
