<svg width="95" height="87" viewBox="0 0 95 87" fill="none" xmlns="http://www.w3.org/2000/svg">
<path d="M85.4393 46.7825L47.5422 85.3101L9.64505 46.7825C7.1454 44.2857 5.17647 41.2846 3.86223 37.9683C2.54799 34.652 1.91692 31.0923 2.00876 27.5133C2.1006 23.9343 2.91336 20.4136 4.39587 17.1729C5.87838 13.9322 7.99848 11.0417 10.6227 8.68338C13.247 6.32507 16.3185 4.55008 19.6439 3.47015C22.9692 2.39022 26.4764 2.02876 29.9446 2.40852C33.4127 2.78828 36.7667 3.90105 39.7953 5.67674C42.824 7.45245 45.4614 9.85261 47.5422 12.7261C49.6316 9.87346 52.2722 7.49426 55.2988 5.73742C58.3253 3.98057 61.6724 2.88388 65.1308 2.51598C68.5896 2.14809 72.0846 2.51691 75.398 3.59936C78.7109 4.68181 81.7708 6.45459 84.3858 8.80675C87.0009 11.1589 89.1146 14.0398 90.5954 17.2692C92.0757 20.4985 92.8907 24.0067 92.9898 27.5744C93.0885 31.142 92.469 34.6921 91.1698 38.0026C89.8706 41.3131 87.9198 44.3127 85.4393 46.8136M47.5 84.6872V76.6938L51.5625 75.206L43.4375 71.238L49.5312 69.254L47.5 67.7662V56.105L61.7187 50.7069L33.2812 43.5092L47.5 38.1112V26.4499L51.5625 24.962L43.4375 20.9941L49.5312 19.0102L47.5 17.5222V13.0584M25.2996 17.982C25.8193 17.982 26.3177 18.1945 26.6852 18.5727C27.0527 18.951 27.2592 19.4639 27.2592 19.9989C27.2592 19.4639 27.4657 18.951 27.8331 18.5727C28.2006 18.1945 28.699 17.982 29.2187 17.982C28.699 17.982 28.2006 17.7695 27.8331 17.3912C27.4657 17.013 27.2592 16.5 27.2592 15.9651C27.2592 16.5 27.0527 17.013 26.6852 17.3912C26.3177 17.7695 25.8193 17.982 25.2996 17.982ZM18.4412 30.0832C18.4412 28.4785 19.0605 26.9395 20.163 25.8048C21.2655 24.6701 22.7607 24.0326 24.3199 24.0326C22.7607 24.0326 21.2655 23.3951 20.163 22.2604C19.0605 21.1257 18.4412 19.5867 18.4412 17.982C18.4412 19.5867 17.8218 21.1257 16.7194 22.2604C15.6169 23.3951 14.1216 24.0326 12.5625 24.0326C14.1216 24.0326 15.6169 24.6701 16.7194 25.8048C17.8218 26.9395 18.4412 28.4785 18.4412 30.0832Z" stroke="#FF424C" stroke-width="3" stroke-linecap="round" stroke-linejoin="round"/>
</svg>
